
<svg xmlns="http://www.w3.org/2000/svg" viewBox="0 0 350 92.39527188251198" preserveAspectRatio="xMidYMid meet" class="css-8aabad" id="ebbdedcf"><defs id="SvgjsDefs1001"></defs><g id="SvgjsG1007" featurekey="nameFeature-0" transform="matrix(2.3621844521516975,0,0,2.3621844521516975,1.1523877672166065,-24.22674969264703)" fill="#fff"><path d="M21.32 11.920000000000002 c0.44 0.6 0.56 1.28 0.52 2.04 c-0.08 0.68 -0.28 1.36 -0.56 2 c-0.24 0.6 -0.52 1.2 -0.84 1.76 c-0.24 0.36 -0.44 0.72 -0.64 1.08 c-0.24 0.32 -0.44 0.64 -0.64 0.96 c-0.2 0.28 -0.36 0.52 -0.56 0.76 c-0.2 0.32 -0.44 0.64 -0.64 0.96 c-0.16 0.2 -0.32 0.4 -0.48 0.64 c-0.2 0.24 -0.4 0.52 -0.6 0.76 c-0.12 0.2 -0.28 0.4 -0.44 0.6 c-0.2 0.24 -0.4 0.52 -0.6 0.76 s-0.36 0.44 -0.52 0.68 c-0.24 0.24 -0.44 0.52 -0.64 0.8 l-0.48 0.6 c-0.2 0.24 -0.44 0.52 -0.64 0.76 l-0.48 0.6 c-0.24 0.28 -0.48 0.56 -0.68 0.84 c-0.08 0.08 -0.12 0.16 -0.2 0.2 c-0.08 0.12 -0.2 0.12 -0.28 0.04 s-0.04 -0.12 0 -0.2 c0.2 -0.32 0.4 -0.6 0.6 -0.88 c0.28 -0.4 0.56 -0.76 0.84 -1.16 c0.16 -0.24 0.36 -0.52 0.56 -0.76 c0.2 -0.28 0.4 -0.56 0.6 -0.8 c0.12 -0.2 0.28 -0.36 0.44 -0.56 c0.24 -0.36 0.48 -0.68 0.72 -1 c0.2 -0.24 0.36 -0.44 0.52 -0.68 c0.2 -0.28 0.44 -0.56 0.64 -0.84 c0.24 -0.36 0.48 -0.68 0.72 -1 c0.28 -0.44 0.6 -0.84 0.88 -1.28 c0.28 -0.4 0.56 -0.84 0.84 -1.24 c0.36 -0.6 0.68 -1.2 1 -1.8 c0.36 -0.64 0.68 -1.32 0.88 -2.04 c0.16 -0.56 0.24 -1.08 0.16 -1.64 c-0.08 -0.44 -0.24 -0.76 -0.6 -1.04 c-0.32 -0.2 -0.64 -0.28 -0.96 -0.36 c-0.52 -0.12 -1.04 -0.08 -1.56 -0.04 c-0.28 0.04 -0.6 0.08 -0.88 0.16 c-0.2 0.04 -0.44 0.12 -0.64 0.16 c-0.32 0.12 -0.6 0.24 -0.92 0.36 c-0.24 0.12 -0.48 0.2 -0.72 0.32 c-0.44 0.24 -0.88 0.48 -1.32 0.76 c-0.28 0.12 -0.52 0.32 -0.76 0.48 l-0.84 0.6 c-0.2 0.16 -0.36 0.28 -0.56 0.44 c-0.24 0.2 -0.48 0.4 -0.72 0.64 c-0.16 0.12 -0.32 0.24 -0.48 0.4 c-0.28 0.28 -0.56 0.52 -0.84 0.8 l-0.6 0.6 c-0.28 0.28 -0.52 0.56 -0.76 0.84 c-0.2 0.16 -0.36 0.36 -0.52 0.56 c-0.24 0.28 -0.44 0.52 -0.64 0.8 s-0.44 0.52 -0.6 0.8 c-0.32 0.44 -0.6 0.88 -0.88 1.32 c-0.2 0.36 -0.4 0.72 -0.6 1.12 c-0.48 1.04 -0.84 2.08 -0.76 3.24 c0 0.56 0.2 1.08 0.48 1.56 c0.24 0.32 0.52 0.64 0.84 0.88 c0.36 0.28 0.72 0.52 1.08 0.72 c0.2 0.12 0.44 0.24 0.64 0.36 c0.32 0.16 0.64 0.32 1 0.48 c0.2 0.12 0.44 0.24 0.68 0.36 c0.32 0.2 0.68 0.36 1 0.52 c0.28 0.2 0.56 0.36 0.84 0.56 c0.32 0.2 0.64 0.44 0.92 0.68 c0.44 0.4 0.8 0.84 1.08 1.4 c0.28 0.6 0.36 1.28 0.28 1.92 c-0.08 0.68 -0.32 1.32 -0.6 1.96 c-0.28 0.6 -0.64 1.2 -1 1.76 c-0.36 0.48 -0.68 0.92 -1.04 1.4 c-0.32 0.48 -0.72 0.92 -1.08 1.4 c-0.36 0.4 -0.68 0.8 -1.04 1.2 l-0.96 1.08 c-0.4 0.4 -0.8 0.84 -1.2 1.24 c-0.28 0.28 -0.56 0.6 -0.88 0.88 s-0.64 0.6 -0.96 0.88 c-0.24 0.24 -0.52 0.48 -0.8 0.68 c-0.36 0.32 -0.76 0.6 -1.16 0.92 c-0.32 0.2 -0.64 0.36 -0.96 0.52 c-0.28 0.12 -0.56 0.2 -0.88 0.16 c-0.56 -0.04 -0.92 -0.36 -0.92 -0.92 c-0.04 -0.36 0.08 -0.72 0.2 -1.04 c0.2 -0.52 0.44 -1 0.72 -1.44 s0.52 -0.84 0.8 -1.28 c0.32 -0.44 0.64 -0.92 0.96 -1.4 c0.28 -0.36 0.52 -0.76 0.8 -1.16 l1.08 -1.44 c0.2 -0.28 0.44 -0.6 0.68 -0.92 c0.28 -0.32 0.56 -0.68 0.84 -1 c0.28 -0.4 0.6 -0.8 0.92 -1.16 c0.2 -0.2 0.4 -0.44 0.6 -0.64 l0.6 -0.6 c0.32 -0.28 0.64 -0.48 1.12 -0.48 c0.16 0 0.28 0.08 0.32 0.2 c0 0.08 0 0.16 -0.12 0.16 c-0.4 0.04 -0.68 0.24 -0.92 0.52 c-0.24 0.2 -0.44 0.4 -0.64 0.64 c-0.28 0.28 -0.56 0.64 -0.8 0.96 c-0.2 0.2 -0.36 0.4 -0.52 0.6 c-0.2 0.24 -0.4 0.52 -0.6 0.76 c-0.12 0.2 -0.28 0.4 -0.44 0.6 s-0.32 0.44 -0.48 0.68 c-0.12 0.16 -0.24 0.28 -0.36 0.44 s-0.24 0.36 -0.4 0.56 c-0.16 0.24 -0.32 0.44 -0.48 0.68 c-0.12 0.2 -0.28 0.4 -0.4 0.6 s-0.28 0.4 -0.4 0.6 c-0.16 0.24 -0.36 0.52 -0.52 0.76 l-0.36 0.6 c-0.24 0.32 -0.44 0.68 -0.64 1 c-0.2 0.36 -0.4 0.76 -0.56 1.12 c-0.16 0.4 -0.32 0.8 -0.36 1.24 l0 0.12 c0.04 0.2 0.12 0.24 0.28 0.16 c0.04 0 0.08 -0.04 0.16 -0.08 c0.32 -0.08 0.64 -0.28 0.92 -0.48 c0.12 -0.08 0.2 -0.16 0.32 -0.24 c0.28 -0.2 0.56 -0.44 0.84 -0.64 c0.16 -0.12 0.28 -0.24 0.44 -0.4 c0.28 -0.28 0.6 -0.56 0.92 -0.84 l0.6 -0.6 c0.24 -0.24 0.52 -0.52 0.76 -0.8 l0.6 -0.6 c0.24 -0.28 0.48 -0.52 0.72 -0.8 c0.16 -0.2 0.36 -0.4 0.52 -0.6 c0.24 -0.24 0.48 -0.52 0.68 -0.8 c0.16 -0.2 0.36 -0.36 0.52 -0.56 c0.24 -0.36 0.52 -0.68 0.8 -1 c0.2 -0.28 0.4 -0.52 0.6 -0.8 c0.24 -0.32 0.44 -0.64 0.68 -1 c0.2 -0.28 0.4 -0.6 0.6 -0.92 c0.32 -0.52 0.6 -1.08 0.8 -1.68 c0.16 -0.4 0.28 -0.84 0.36 -1.28 c0.04 -0.68 -0.04 -1.28 -0.44 -1.84 c-0.2 -0.24 -0.4 -0.48 -0.64 -0.68 c-0.36 -0.28 -0.68 -0.52 -1.08 -0.72 c-0.32 -0.2 -0.64 -0.36 -0.96 -0.56 c-0.32 -0.16 -0.68 -0.32 -1 -0.52 c-0.36 -0.16 -0.68 -0.32 -1.04 -0.52 l-0.84 -0.48 c-0.36 -0.24 -0.72 -0.48 -1.04 -0.76 c-0.32 -0.24 -0.6 -0.52 -0.88 -0.84 c-0.48 -0.56 -0.8 -1.24 -0.96 -2 c-0.12 -0.88 0 -1.72 0.28 -2.56 c0.2 -0.64 0.48 -1.24 0.8 -1.84 c0.24 -0.4 0.48 -0.76 0.72 -1.12 c0.2 -0.36 0.44 -0.68 0.64 -1 c0.2 -0.24 0.4 -0.52 0.64 -0.76 c0.24 -0.32 0.52 -0.68 0.8 -1 l0.6 -0.6 c0.32 -0.32 0.6 -0.64 0.96 -0.96 c0.2 -0.24 0.4 -0.4 0.64 -0.6 c0.28 -0.28 0.56 -0.56 0.84 -0.8 c0.2 -0.16 0.36 -0.28 0.52 -0.4 c0.28 -0.24 0.56 -0.44 0.8 -0.64 c0.2 -0.16 0.4 -0.28 0.56 -0.4 c0.36 -0.24 0.68 -0.44 1.04 -0.68 c0.08 -0.08 0.2 -0.12 0.32 -0.2 c0.4 -0.2 0.84 -0.4 1.24 -0.64 c0.28 -0.12 0.52 -0.2 0.8 -0.32 c0.36 -0.12 0.76 -0.24 1.16 -0.36 c0.28 -0.08 0.56 -0.12 0.84 -0.16 c0.32 -0.08 0.6 -0.08 0.8 -0.12 c0.32 0.04 0.56 0 0.8 0.04 c0.36 0.08 0.76 0.16 1.08 0.36 c0.44 0.2 0.8 0.48 1.04 0.84 z M28.200000000000003 29.240000000000002 c0.16 -0.2 0.52 0 0.32 0.2 c-0.56 0.68 -1.16 1.32 -1.72 1.96 c-0.96 1.12 -1.92 2.24 -2.92 3.36 c-0.4 0.44 -0.88 0.88 -1.44 1.12 l0 0.04 c-1.16 0.4 -1 -0.96 -0.96 -1.28 c0 -0.12 0.04 -0.24 0.08 -0.36 c0.44 -1.76 1.12 -3.44 1.84 -5.08 c0.12 -0.28 0.28 -0.52 0.4 -0.8 c-0.4 0.24 -1.28 1.12 -1.32 1.2 c-0.96 1 -1.84 2.08 -2.6 3.2 c-0.24 0.32 -0.44 0.6 -0.68 0.92 c-0.24 0.28 -0.64 0.28 -0.92 0.04 c-0.08 -0.08 -0.12 -0.16 -0.12 -0.28 c0 -0.04 0.04 -0.04 0.04 -0.08 l0 0 l2.16 -6.48 l0.72 -2.08 l0 0 c0.16 -0.48 0.32 -0.96 0.48 -1.4 c0.84 -2.52 1.76 -4.96 2.8 -7.4 l0 -0.08 c0.16 -0.32 0.8 -1.76 1.4 -2.4 c0.08 -0.08 0.32 -0.32 0.6 -0.24 l0.12 0 l0 0.04 c0.08 0 0.12 0.04 0.12 0.04 c0.12 0.12 0.2 0.32 0.24 0.48 c0.04 0.24 0.08 0.48 0.08 0.76 l0 0 l0 0.04 c0 0.08 -0.04 0.16 -0.04 0.24 l0 0.16 c-0.04 0.64 -0.24 1.28 -0.44 1.88 c-0.16 0.64 -0.36 1.24 -0.6 1.84 c-0.44 1.24 -0.92 2.44 -1.44 3.6 c-1.04 2.28 -2.28 4.44 -3.72 6.52 l-1.32 3.6 l0.12 -0.16 l0.08 -0.08 c0.92 -1.24 1.96 -2.44 3.08 -3.52 c0.08 -0.04 0.12 -0.08 0.16 -0.12 l0 0 l0.04 -0.04 c0.28 -0.28 0.6 -0.52 0.92 -0.8 c0 -0.04 0.04 -0.04 0.04 -0.04 l0 0 l0 0 c0.16 -0.12 0.32 -0.12 0.48 -0.08 c0.28 0.08 0.44 0.32 0.36 0.6 c-0.16 0.44 -0.28 0.84 -0.48 1.24 c-0.68 1.64 -1.28 3.28 -1.76 4.96 c-0.04 0.16 -0.08 0.32 -0.08 0.48 c-0.04 0.24 -0.08 0.56 0.2 0.4 c0.4 -0.2 0.68 -0.48 0.76 -0.56 l0.16 -0.16 c0.52 -0.56 1 -1.16 1.52 -1.72 c1.08 -1.24 2.16 -2.44 3.24 -3.68 z M21.400000000000002 26.52 c-0.12 0.4 -0.24 0.76 -0.36 1.16 c0.48 -0.68 0.88 -1.36 1.28 -2.08 c1.2 -2.08 2.2 -4.24 3 -6.48 l0.6 -1.68 c0.16 -0.56 0.36 -1.12 0.48 -1.72 c0.04 -0.32 0.12 -0.68 0.12 -1.04 c0 0 0 -0.52 -0.08 -0.88 c-0.52 0.6 -1.08 2 -1.32 2.52 c-0.4 1.04 -0.8 2.04 -1.2 3.08 c-0.88 2.36 -1.72 4.72 -2.52 7.12 z M35.28 29.240000000000002 c0.2 -0.2 0.52 0 0.32 0.2 c-0.6 0.68 -1.2 1.32 -1.84 1.96 c-1.04 1.12 -2.04 2.24 -3.12 3.36 c-0.44 0.44 -0.92 0.88 -1.48 1.12 c-0.04 0 -0.04 0 -0.04 0.04 c-1.2 0.4 -0.96 -0.96 -0.88 -1.28 l0.12 -0.36 c0.24 -0.76 0.48 -1.48 0.8 -2.2 c0 -0.04 0.04 -0.12 0.04 -0.16 c0.12 -0.32 0.2 -0.64 0.2 -0.96 c-0.04 -0.32 -0.16 -0.6 -0.4 -0.8 l-0.12 -0.12 c-0.2 -0.16 -0.48 -0.4 -0.48 -0.4 c-0.12 -0.08 -0.2 -0.2 -0.28 -0.28 l0 0 l0 0 c-0.16 -0.16 -0.2 -0.24 -0.2 -0.24 c-0.4 -0.56 -0.4 -1.16 -0.12 -1.88 c0.16 -0.36 0.36 -0.68 0.6 -0.96 c0.2 -0.2 0.4 -0.36 0.68 -0.4 c0.12 0 0.2 0.04 0.28 0.04 c0.16 0.04 0.6 0.24 0.44 1.12 c0 0.04 -0.04 0.24 -0.12 0.48 c-0.04 0.08 -0.08 0.2 -0.12 0.28 l-0.04 0.04 c-0.28 0.64 -0.68 1.16 -0.68 1.16 l0.12 0.08 c0.12 0.12 0.24 0.24 0.4 0.36 c0.12 0.12 0.28 0.2 0.4 0.32 c0.36 0.28 0.56 0.6 0.64 1 c0.04 0.32 -0.04 0.68 -0.12 0.8 l-0.6 1.6 c-0.04 0.04 -0.04 0.04 -0.04 0.08 c0 0 -0.04 0.04 -0.04 0.08 l0 0.04 l0 0 c-0.16 0.36 -0.28 0.76 -0.4 1.12 c-0.08 0.16 -0.12 0.32 -0.16 0.48 c-0.04 0.24 -0.08 0.56 0.2 0.4 c0.4 -0.2 0.72 -0.48 0.8 -0.56 l0.16 -0.16 c0.56 -0.56 1.08 -1.16 1.64 -1.72 c1.16 -1.24 2.28 -2.44 3.44 -3.68 z M29.200000000000003 26.2 c-0.6 0.36 -1 2 -0.56 2.44 c0 0 0.24 -0.36 0.48 -0.8 l0 0 l0 0 c0.04 0 0.04 -0.04 0.04 -0.08 c0.16 -0.28 0.6 -1.24 0.04 -1.56 z M36.800000000000004 26.48 c-0.12 0.24 -0.32 0.28 -0.48 0.12 c-0.04 -0.04 -0.04 -0.12 -0.04 -0.16 c0.2 -0.48 0.4 -0.96 0.6 -1.4 c0.08 -0.16 0.2 -0.2 0.36 -0.16 s0.16 0.12 0.08 0.32 c-0.16 0.44 -0.36 0.88 -0.52 1.28 z M39.480000000000004 29.240000000000002 c0.08 0.16 0 0.28 0 0.28 l0 0 c-0.76 0.92 -1.48 1.88 -2.2 2.84 c-0.36 0.44 -0.72 0.88 -1.16 1.28 c-0.24 0.24 -0.56 0.48 -0.92 0.52 l0 0 c-2.32 0.12 0.12 -4.72 0.08 -5 c0 -0.04 0.08 0 0.2 -0.04 l0 0 l0.08 0 l0 0 s0.24 -0.08 0.4 0.04 l0 0 l0 0 s0 0.04 0.04 0.04 l0 0 c0.04 0.08 0.04 0.16 0 0.28 c-0.08 0.32 -0.2 0.64 -0.32 0.96 c-0.32 0.8 -0.56 1.64 -0.64 2.44 c0 0.16 -0.04 0.32 0 0.48 c0 0.12 0.04 0.28 0.16 0.4 c0.12 0 0.28 -0.08 0.4 -0.2 c0.08 -0.04 0.16 -0.08 0.2 -0.12 l0 -0.04 l0 0 c0.12 -0.08 0.2 -0.16 0.28 -0.24 c0.4 -0.4 0.72 -0.84 1.08 -1.28 c0.68 -0.88 1.36 -1.8 2.08 -2.68 c0 0 0.12 -0.12 0.24 0.04 z M68.92 10.64 c0.04 0.04 0 0.12 0 0.12 c-0.12 0.04 -0.12 0.12 -0.16 0.2 c-0.28 0.76 -0.56 1.56 -0.84 2.32 c-0.68 1.8 -1.4 3.6 -2.08 5.36 c-1.2 3.2 -2.36 6.4 -3.48 9.6 l0 0.04 l0.24 -0.08 c0.12 -0.04 0.24 -0.08 0.36 -0.08 c0.52 -0.16 1.08 -0.28 1.6 -0.44 c0.24 -0.04 0.44 0 0.6 0.12 c0.04 0.04 0.12 0.12 0.12 0.16 c0.08 0.12 0 0.2 -0.12 0.2 c-0.2 0.04 -0.44 0.04 -0.64 0.12 c-0.72 0.2 -1.44 0.4 -2.16 0.64 l0 0 l-0.08 0.04 l-0.08 0 l0 0 l-0.08 0.04 c-0.64 1.84 -1.24 3.68 -1.84 5.56 l-3.48 11.28 c-0.28 0.84 -0.48 1.68 -0.72 2.52 c-0.04 0.16 -0.08 0.36 0.08 0.52 c0 0.04 -0.04 0.12 -0.08 0.16 c-0.24 0.2 -0.72 0 -0.72 -0.36 c0 -0.2 0.04 -0.44 0.08 -0.68 c0.28 -1 0.56 -2.04 0.84 -3.04 c1.24 -4 2.44 -8 3.68 -11.96 c0.36 -1.24 0.76 -2.48 1.16 -3.68 l-0.24 0.08 l0 0 l-0.48 0.12 c-2.64 0.84 -5.24 1.68 -7.84 2.52 c-0.12 0 -0.2 0.04 -0.24 0.16 c-1.16 3.52 -2.36 7 -3.52 10.52 c-0.12 0.32 -0.2 0.68 -0.28 1.04 c-0.08 0.2 -0.44 0.32 -0.56 0.2 c-0.04 -0.04 -0.04 -0.12 -0.04 -0.16 c0.08 -0.32 0.12 -0.68 0.24 -1 c0.88 -2.76 1.72 -5.52 2.6 -8.32 c0.24 -0.68 0.44 -1.36 0.68 -2.04 l0 -0.08 c-0.56 0.2 -1.12 0.36 -1.68 0.52 c-0.88 0.24 -1.76 0.44 -2.68 0.64 c-0.28 0.08 -0.56 0.08 -0.84 0.04 c-0.12 0 -0.28 -0.08 -0.4 -0.16 c-0.04 -0.04 -0.08 -0.12 -0.04 -0.16 c0 -0.04 0.08 -0.08 0.12 -0.08 c0.08 -0.04 0.12 0 0.2 0 s0.2 0.04 0.28 0 c0.88 -0.28 1.72 -0.52 2.56 -0.8 c0.88 -0.28 1.76 -0.56 2.68 -0.84 c0.08 -0.04 0.08 -0.08 0.12 -0.16 c1.16 -3.76 2.48 -7.44 3.84 -11.12 l1.32 -3.24 c0.04 -0.12 0.08 -0.16 0.2 -0.12 c0.28 0.04 0.4 0.2 0.32 0.48 c-0.12 0.4 -0.24 0.84 -0.36 1.24 c-0.72 2.08 -1.48 4.16 -2.2 6.24 c-0.72 2.04 -1.44 4.12 -2.16 6.2 c0 0.04 0 0.08 -0.04 0.12 c0.08 0 0.12 -0.04 0.16 -0.04 c2.72 -0.84 5.48 -1.64 8.2 -2.44 l0.32 -0.12 c1.08 -3.44 2.32 -6.88 3.68 -10.24 c0.6 -1.56 1.28 -3.12 1.96 -4.64 c0.4 -1 0.88 -1.96 1.32 -2.96 c0.04 -0.04 0.08 -0.12 0.12 -0.16 c0.12 -0.2 0.2 -0.2 0.36 -0.08 c0.08 0.04 0.12 0.12 0.12 0.16 z M73.96000000000001 29.28 c0.16 -0.24 0.52 -0.04 0.36 0.2 c-0.48 0.8 -1 1.56 -1.52 2.32 c-0.48 0.64 -0.92 1.28 -1.4 1.96 c-0.44 0.6 -0.88 1.24 -1.36 1.8 l-0.36 0.36 s-0.52 0.44 -0.92 0.36 c-0.08 0 -0.12 0 -0.16 -0.04 l0 0 c-0.8 -0.32 -0.6 -1.8 -0.44 -2.44 c0.12 -0.4 0.2 -0.8 0.32 -1.16 c0.04 -0.12 0.08 -0.2 0.08 -0.32 l0 0 l0.36 -1.16 s-1.48 2.6 -2.32 3.24 c0 0.04 -0.04 0.04 -0.08 0.08 c-0.76 0.52 -0.92 -0.28 -0.96 -0.44 c-0.04 -0.28 -0.04 -0.6 0 -0.8 c0.16 -1.36 0.64 -2.6 1.44 -3.76 c0.2 -0.28 0.44 -0.56 0.76 -0.72 c0.36 -0.2 0.72 -0.28 1.04 -0.16 c0.52 0.24 0.6 0.92 0.6 0.92 l0.24 -0.48 l0 0 c0.12 -0.24 0.24 -0.44 0.36 -0.68 c0.08 -0.16 0.2 -0.2 0.4 -0.16 c0.2 0.08 0.32 0.2 0.32 0.36 c-0.04 0.16 -0.08 0.36 -0.12 0.52 c-0.24 0.68 -0.44 1.36 -0.68 2.04 c-0.32 0.84 -0.56 1.72 -0.8 2.6 c-0.04 0.16 -0.16 0.8 -0.2 1.24 c-0.04 0.12 -0.04 0.28 -0.04 0.4 c0.04 0.08 0.04 0.4 0.2 0.4 l0.04 0 l0 0 c0.2 -0.04 0.4 -0.24 0.48 -0.32 l0.04 -0.04 l0 0 c0.52 -0.52 0.92 -1.16 1.32 -1.72 c1.04 -1.44 2.08 -2.92 3 -4.4 z M68.92000000000002 30.32 l0.24 -0.4 s-0.2 -1.04 -0.56 -0.96 l0 0 c-0.32 0.08 -0.84 0.72 -0.88 0.72 c-0.2 0.28 -0.36 0.56 -0.56 0.88 c0 0.04 -0.04 0.08 -0.08 0.16 c-0.24 0.48 -0.44 1 -0.6 1.52 c-0.08 0.24 -0.12 0.52 -0.2 0.76 c-0.04 0.28 -0.08 0.56 -0.08 0.84 c0 0.08 0 0.2 0.04 0.28 c0.08 0.12 0.24 0 0.28 -0.08 c0.32 -0.36 0.72 -0.88 0.84 -1.08 c0.56 -0.84 1.08 -1.72 1.56 -2.64 z M81.04 29.240000000000002 c0.2 -0.2 0.52 0 0.32 0.2 c-0.6 0.68 -1.2 1.32 -1.84 1.96 c-1.04 1.12 -2.04 2.24 -3.12 3.36 c-0.44 0.44 -0.92 0.88 -1.48 1.12 c-0.04 0 -0.04 0 -0.04 0.04 c-1.2 0.4 -0.96 -0.96 -0.88 -1.28 l0.12 -0.36 c0.24 -0.76 0.48 -1.48 0.8 -2.2 c0 -0.04 0.04 -0.12 0.04 -0.16 c0.12 -0.32 0.2 -0.64 0.2 -0.96 c-0.04 -0.32 -0.16 -0.6 -0.4 -0.8 l-0.12 -0.12 c-0.2 -0.16 -0.48 -0.4 -0.48 -0.4 c-0.12 -0.08 -0.2 -0.2 -0.28 -0.28 l0 0 l0 0 c-0.16 -0.16 -0.2 -0.24 -0.2 -0.24 c-0.4 -0.56 -0.4 -1.16 -0.12 -1.88 c0.16 -0.36 0.36 -0.68 0.6 -0.96 c0.2 -0.2 0.4 -0.36 0.68 -0.4 c0.12 0 0.2 0.04 0.28 0.04 c0.16 0.04 0.6 0.24 0.44 1.12 c0 0.04 -0.04 0.24 -0.12 0.48 c-0.04 0.08 -0.08 0.2 -0.12 0.28 l-0.04 0.04 c-0.28 0.64 -0.68 1.16 -0.68 1.16 l0.12 0.08 c0.12 0.12 0.24 0.24 0.4 0.36 c0.12 0.12 0.28 0.2 0.4 0.32 c0.36 0.28 0.56 0.6 0.64 1 c0.04 0.32 -0.04 0.68 -0.12 0.8 l-0.6 1.6 c-0.04 0.04 -0.04 0.04 -0.04 0.08 c0 0 -0.04 0.04 -0.04 0.08 l0 0.04 l0 0 c-0.16 0.36 -0.28 0.76 -0.4 1.12 c-0.08 0.16 -0.12 0.32 -0.16 0.48 c-0.04 0.24 -0.08 0.56 0.2 0.4 c0.4 -0.2 0.72 -0.48 0.8 -0.56 l0.16 -0.16 c0.56 -0.56 1.08 -1.16 1.64 -1.72 c1.16 -1.24 2.28 -2.44 3.44 -3.68 z M74.96000000000001 26.2 c-0.6 0.36 -1 2 -0.56 2.44 c0 0 0.24 -0.36 0.48 -0.8 l0 0 l0 0 c0.04 0 0.04 -0.04 0.04 -0.08 c0.16 -0.28 0.6 -1.24 0.04 -1.56 z M88.12 29.240000000000002 c0.2 -0.2 0.52 0 0.32 0.2 c-0.6 0.68 -1.2 1.32 -1.84 1.96 c-1.04 1.12 -2.04 2.24 -3.12 3.36 c-0.44 0.44 -0.92 0.88 -1.48 1.12 c-0.04 0 -0.04 0 -0.04 0.04 c-1.2 0.4 -0.96 -0.96 -0.88 -1.28 l0.12 -0.36 c0.24 -0.76 0.48 -1.48 0.8 -2.2 c0 -0.04 0.04 -0.12 0.04 -0.16 c0.12 -0.32 0.2 -0.64 0.2 -0.96 c-0.04 -0.32 -0.16 -0.6 -0.4 -0.8 l-0.12 -0.12 c-0.2 -0.16 -0.48 -0.4 -0.48 -0.4 c-0.12 -0.08 -0.2 -0.2 -0.28 -0.28 l0 0 l0 0 c-0.16 -0.16 -0.2 -0.24 -0.2 -0.24 c-0.4 -0.56 -0.4 -1.16 -0.12 -1.88 c0.16 -0.36 0.36 -0.68 0.6 -0.96 c0.2 -0.2 0.4 -0.36 0.68 -0.4 c0.12 0 0.2 0.04 0.28 0.04 c0.16 0.04 0.6 0.24 0.44 1.12 c0 0.04 -0.04 0.24 -0.12 0.48 c-0.04 0.08 -0.08 0.2 -0.12 0.28 l-0.04 0.04 c-0.28 0.64 -0.68 1.16 -0.68 1.16 l0.12 0.08 c0.12 0.12 0.24 0.24 0.4 0.36 c0.12 0.12 0.28 0.2 0.4 0.32 c0.36 0.28 0.56 0.6 0.64 1 c0.04 0.32 -0.04 0.68 -0.12 0.8 l-0.6 1.6 c-0.04 0.04 -0.04 0.04 -0.04 0.08 c0 0 -0.04 0.04 -0.04 0.08 l0 0.04 l0 0 c-0.16 0.36 -0.28 0.76 -0.4 1.12 c-0.08 0.16 -0.12 0.32 -0.16 0.48 c-0.04 0.24 -0.08 0.56 0.2 0.4 c0.4 -0.2 0.72 -0.48 0.8 -0.56 l0.16 -0.16 c0.56 -0.56 1.08 -1.16 1.64 -1.72 c1.16 -1.24 2.28 -2.44 3.44 -3.68 z M82.04 26.2 c-0.6 0.36 -1 2 -0.56 2.44 c0 0 0.24 -0.36 0.48 -0.8 l0 0 l0 0 c0.04 0 0.04 -0.04 0.04 -0.08 c0.16 -0.28 0.6 -1.24 0.04 -1.56 z M89.64 26.48 c-0.12 0.24 -0.32 0.28 -0.48 0.12 c-0.04 -0.04 -0.04 -0.12 -0.04 -0.16 c0.2 -0.48 0.4 -0.96 0.6 -1.4 c0.08 -0.16 0.2 -0.2 0.36 -0.16 s0.16 0.12 0.08 0.32 c-0.16 0.44 -0.36 0.88 -0.52 1.28 z M92.32000000000001 29.240000000000002 c0.08 0.16 0 0.28 0 0.28 l0 0 c-0.76 0.92 -1.48 1.88 -2.2 2.84 c-0.36 0.44 -0.72 0.88 -1.16 1.28 c-0.24 0.24 -0.56 0.48 -0.92 0.52 l0 0 c-2.32 0.12 0.12 -4.72 0.08 -5 c0 -0.04 0.08 0 0.2 -0.04 l0 0 l0.08 0 l0 0 s0.24 -0.08 0.4 0.04 l0 0 l0 0 s0 0.04 0.04 0.04 l0 0 c0.04 0.08 0.04 0.16 0 0.28 c-0.08 0.32 -0.2 0.64 -0.32 0.96 c-0.32 0.8 -0.56 1.64 -0.64 2.44 c0 0.16 -0.04 0.32 0 0.48 c0 0.12 0.04 0.28 0.16 0.4 c0.12 0 0.28 -0.08 0.4 -0.2 c0.08 -0.04 0.16 -0.08 0.2 -0.12 l0 -0.04 l0 0 c0.12 -0.08 0.2 -0.16 0.28 -0.24 c0.4 -0.4 0.72 -0.84 1.08 -1.28 c0.68 -0.88 1.36 -1.8 2.08 -2.68 c0 0 0.12 -0.12 0.24 0.04 z M108.32 17.48 c-0.2 0.24 -0.24 0.56 -0.36 0.88 c-1.28 3.56 -2.52 7.2 -3.72 10.88 c-0.96 2.96 -1.88 5.92 -2.84 8.92 l-2.76 8.76 c-0.12 0.44 -0.28 0.88 -0.44 1.36 c-0.04 0.16 -0.16 0.24 -0.32 0.24 c-0.04 0 -0.12 -0.04 -0.16 -0.04 c-0.12 -0.04 -0.16 -0.12 -0.12 -0.28 c0.12 -0.52 0.24 -1.08 0.4 -1.6 c0.88 -2.88 1.76 -5.72 2.64 -8.6 c1.2 -3.84 2.4 -7.68 3.64 -11.52 c0.8 -2.56 1.64 -5.08 2.6 -7.56 c0.48 -1.2 0.92 -2.4 1.4 -3.6 c0.04 -0.08 0.12 -0.16 0.2 -0.12 s0.2 0.12 0.28 0.16 c0.08 0.12 0.12 0.24 0.08 0.36 c-0.16 0.44 -0.28 0.84 -0.4 1.28 c-0.04 0.12 -0.08 0.28 -0.12 0.4 l0 0.08 z M121.52 13.8 c0.8 1.24 1.12 2.64 0.88 4.28 c-0.2 1.16 -0.64 2.24 -1.2 3.2 c-0.92 1.48 -2.04 2.72 -3.24 3.84 c-1.24 1.16 -2.56 2.12 -3.92 3.04 c-1.48 0.96 -2.92 1.92 -4.4 2.88 c-1.24 0.8 -2.48 1.56 -3.76 2.2 l-0.6 0.24 c-0.16 0.04 -0.4 -0.12 -0.48 -0.32 c0 -0.04 0 -0.12 0.04 -0.16 c0 -0.04 0.08 -0.04 0.12 -0.08 c0.12 0 0.2 0 0.28 -0.04 c0.68 -0.36 1.36 -0.76 2.04 -1.16 c2.2 -1.36 4.4 -2.8 6.56 -4.36 c1.44 -1.04 2.8 -2.16 4.12 -3.44 c0.88 -0.92 1.72 -1.88 2.44 -3 c0.52 -0.84 1 -1.72 1.24 -2.72 c0.44 -1.64 0.28 -3.08 -0.56 -4.36 c-0.56 -0.84 -1.32 -1.44 -2.2 -1.92 c-0.84 -0.48 -1.72 -0.8 -2.68 -0.96 c-0.48 -0.08 -0.96 -0.12 -1.4 -0.2 c-1.56 -0.04 -3.08 0.12 -4.64 0.6 c-1.4 0.4 -2.8 1 -4.12 1.84 c-1.2 0.72 -2.32 1.64 -3.36 2.72 c-0.6 0.6 -1.16 1.24 -1.56 2 c-0.16 0.24 -0.32 0.52 -0.36 0.84 l0 0.24 s-0.04 0.12 -0.08 0.12 c-0.16 0 -0.28 -0.08 -0.24 -0.28 c0 -0.36 0.12 -0.68 0.28 -1 c0.32 -0.6 0.72 -1.12 1.12 -1.64 c0.56 -0.64 1.16 -1.24 1.8 -1.8 c0.84 -0.72 1.76 -1.36 2.68 -1.92 c1.08 -0.64 2.2 -1.12 3.32 -1.48 c1 -0.32 1.96 -0.56 2.96 -0.64 c0.8 -0.12 1.6 -0.12 2.44 -0.08 c1.52 0.12 3 0.52 4.36 1.36 c0.84 0.56 1.56 1.24 2.12 2.16 z M128.44 29.240000000000002 c0.2 -0.2 0.52 0 0.32 0.2 c-0.6 0.68 -1.2 1.32 -1.84 1.96 c-1.04 1.12 -2.04 2.24 -3.12 3.36 c-0.44 0.44 -0.92 0.88 -1.48 1.12 c-0.04 0 -0.04 0 -0.04 0.04 c-1.2 0.4 -0.96 -0.96 -0.88 -1.28 l0.12 -0.36 c0.24 -0.76 0.48 -1.48 0.8 -2.2 c0 -0.04 0.04 -0.12 0.04 -0.16 c0.12 -0.32 0.2 -0.64 0.2 -0.96 c-0.04 -0.32 -0.16 -0.6 -0.4 -0.8 l-0.12 -0.12 c-0.2 -0.16 -0.48 -0.4 -0.48 -0.4 c-0.12 -0.08 -0.2 -0.2 -0.28 -0.28 l0 0 l0 0 c-0.16 -0.16 -0.2 -0.24 -0.2 -0.24 c-0.4 -0.56 -0.4 -1.16 -0.12 -1.88 c0.16 -0.36 0.36 -0.68 0.6 -0.96 c0.2 -0.2 0.4 -0.36 0.68 -0.4 c0.12 0 0.2 0.04 0.28 0.04 c0.16 0.04 0.6 0.24 0.44 1.12 c0 0.04 -0.04 0.24 -0.12 0.48 c-0.04 0.08 -0.08 0.2 -0.12 0.28 l-0.04 0.04 c-0.28 0.64 -0.68 1.16 -0.68 1.16 l0.12 0.08 c0.12 0.12 0.24 0.24 0.4 0.36 c0.12 0.12 0.28 0.2 0.4 0.32 c0.36 0.28 0.56 0.6 0.64 1 c0.04 0.32 -0.04 0.68 -0.12 0.8 l-0.6 1.6 c-0.04 0.04 -0.04 0.04 -0.04 0.08 c0 0 -0.04 0.04 -0.04 0.08 l0 0.04 l0 0 c-0.16 0.36 -0.28 0.76 -0.4 1.12 c-0.08 0.16 -0.12 0.32 -0.16 0.48 c-0.04 0.24 -0.08 0.56 0.2 0.4 c0.4 -0.2 0.72 -0.48 0.8 -0.56 l0.16 -0.16 c0.56 -0.56 1.08 -1.16 1.64 -1.72 c1.16 -1.24 2.28 -2.44 3.44 -3.68 z M122.36 26.2 c-0.6 0.36 -1 2 -0.56 2.44 c0 0 0.24 -0.36 0.48 -0.8 l0 0 l0 0 c0.04 0 0.04 -0.04 0.04 -0.08 c0.16 -0.28 0.6 -1.24 0.04 -1.56 z M129.96 26.48 c-0.12 0.24 -0.32 0.28 -0.48 0.12 c-0.04 -0.04 -0.04 -0.12 -0.04 -0.16 c0.2 -0.48 0.4 -0.96 0.6 -1.4 c0.08 -0.16 0.2 -0.2 0.36 -0.16 s0.16 0.12 0.08 0.32 c-0.16 0.44 -0.36 0.88 -0.52 1.28 z M132.64 29.240000000000002 c0.08 0.16 0 0.28 0 0.28 l0 0 c-0.76 0.92 -1.48 1.88 -2.2 2.84 c-0.36 0.44 -0.72 0.88 -1.16 1.28 c-0.24 0.24 -0.56 0.48 -0.92 0.52 l0 0 c-2.32 0.12 0.12 -4.72 0.08 -5 c0 -0.04 0.08 0 0.2 -0.04 l0 0 l0.08 0 l0 0 s0.24 -0.08 0.4 0.04 l0 0 l0 0 s0 0.04 0.04 0.04 l0 0 c0.04 0.08 0.04 0.16 0 0.28 c-0.08 0.32 -0.2 0.64 -0.32 0.96 c-0.32 0.8 -0.56 1.64 -0.64 2.44 c0 0.16 -0.04 0.32 0 0.48 c0 0.12 0.04 0.28 0.16 0.4 c0.12 0 0.28 -0.08 0.4 -0.2 c0.08 -0.04 0.16 -0.08 0.2 -0.12 l0 -0.04 l0 0 c0.12 -0.08 0.2 -0.16 0.28 -0.24 c0.4 -0.4 0.72 -0.84 1.08 -1.28 c0.68 -0.88 1.36 -1.8 2.08 -2.68 c0 0 0.12 -0.12 0.24 0.04 z M140.56 29.2 c0.2 -0.16 0.4 0.2 0.2 0.32 c-0.28 0.2 -0.52 0.4 -0.76 0.6 c-1.96 1.6 -3.68 3.4 -5.28 5.28 c-0.08 0.08 -0.12 0.12 -0.16 0.2 c-0.32 0.88 -0.64 1.8 -1 2.76 c-0.16 0.48 -0.32 0.92 -0.48 1.4 c-0.6 1.8 -1.2 3.6 -2.04 5.32 c-0.4 0.84 -0.84 1.64 -1.4 2.36 c-0.6 0.76 -1.12 1.2 -1.2 1.24 c-1.44 1.08 -1.92 0.36 -2.08 0 c-0.08 -0.24 -0.12 -0.44 -0.16 -0.64 c-0.12 -1.32 0.6 -2.52 1.24 -3.6 c0.68 -1.2 1.44 -2.36 2.28 -3.48 c0.8 -1.12 1.68 -2.2 2.56 -3.28 c0.4 -0.44 0.76 -0.92 1.16 -1.36 l0.64 -1.8 l0 0 c0.28 -0.8 0.6 -1.6 0.88 -2.44 l0 0 c0.2 -0.6 0.44 -1.2 0.72 -1.8 c-0.16 0.28 -0.32 0.52 -0.52 0.8 c-0.48 0.8 -1 1.6 -1.56 2.4 c-0.24 0.4 -0.52 0.8 -0.8 1.16 c-0.24 0.32 -0.48 0.68 -0.84 0.88 c-0.32 0.16 -0.76 0.12 -1 -0.16 c0 -0.04 -0.04 -0.04 -0.04 -0.04 l0 0 c-0.6 -0.76 0.32 -3.2 0.32 -3.2 l0 0.04 c0.04 -0.08 0.04 -0.12 0.04 -0.16 c0.32 -0.96 0.68 -1.92 1.12 -2.8 c0 -0.08 0.16 -0.12 0.28 -0.08 c0.24 0.08 0.44 0.24 0.4 0.4 c0 0 0 0.04 -0.04 0.04 c-0.04 0.2 -0.08 0.4 -0.16 0.6 c-0.16 0.6 -0.36 1.2 -0.56 1.8 l0 0 c-0.04 0.08 -0.04 0.12 -0.08 0.16 l0 0.04 c0 0.04 0 0.08 -0.04 0.12 l0 0 l-0.2 0.64 s-0.68 2.16 -0.32 2.2 l0 0 l0.04 0 l0.08 0 c0 0 0.2 -0.04 0.6 -0.56 l0 -0.04 c0.52 -0.68 0.96 -1.36 1.44 -2.08 c0.76 -1.2 1.56 -2.44 2.32 -3.64 l0 0 s0.16 -0.4 0.64 -0.24 c0.28 0.08 0.28 0.36 0.24 0.52 l-0.08 0.12 l0 0 l0 0 l-2.04 5.36 c1.72 -1.96 3.56 -3.8 5.64 -5.36 z M132.44 39.2 c0.2 -0.6 0.4 -1.2 0.64 -1.84 c-0.28 0.32 -0.56 0.64 -0.8 0.96 c-0.88 1.04 -1.72 2.08 -2.48 3.2 c-0.76 1.04 -1.48 2.16 -2.12 3.28 c-0.6 1 -1.32 2.24 -1.04 3.48 c0 0 0.04 0.04 0.04 0.08 c0.04 0.16 0.16 0.48 0.4 0.52 c0.72 0.16 1.92 -1.44 2.04 -1.64 c0.52 -0.72 0.92 -1.52 1.28 -2.32 c0.84 -1.88 1.44 -3.8 2.04 -5.72 z M147.28 29.28 c0.16 -0.24 0.52 -0.04 0.36 0.2 c-0.48 0.8 -1 1.56 -1.52 2.32 c-0.48 0.64 -0.92 1.28 -1.4 1.96 c-0.44 0.6 -0.88 1.24 -1.36 1.8 l-0.36 0.36 s-0.52 0.44 -0.92 0.36 c-0.08 0 -0.12 0 -0.16 -0.04 l0 0 c-0.8 -0.32 -0.6 -1.8 -0.44 -2.44 c0.12 -0.4 0.2 -0.8 0.32 -1.16 c0.04 -0.12 0.08 -0.2 0.08 -0.32 l0 0 l0.36 -1.16 s-1.48 2.6 -2.32 3.24 c0 0.04 -0.04 0.04 -0.08 0.08 c-0.76 0.52 -0.92 -0.28 -0.96 -0.44 c-0.04 -0.28 -0.04 -0.6 0 -0.8 c0.16 -1.36 0.64 -2.6 1.44 -3.76 c0.2 -0.28 0.44 -0.56 0.76 -0.72 c0.36 -0.2 0.72 -0.28 1.04 -0.16 c0.52 0.24 0.6 0.92 0.6 0.92 l0.24 -0.48 l0 0 c0.12 -0.24 0.24 -0.44 0.36 -0.68 c0.08 -0.16 0.2 -0.2 0.4 -0.16 c0.2 0.08 0.32 0.2 0.32 0.36 c-0.04 0.16 -0.08 0.36 -0.12 0.52 c-0.24 0.68 -0.44 1.36 -0.68 2.04 c-0.32 0.84 -0.56 1.72 -0.8 2.6 c-0.04 0.16 -0.16 0.8 -0.2 1.24 c-0.04 0.12 -0.04 0.28 -0.04 0.4 c0.04 0.08 0.04 0.4 0.2 0.4 l0.04 0 l0 0 c0.2 -0.04 0.4 -0.24 0.48 -0.32 l0.04 -0.04 l0 0 c0.52 -0.52 0.92 -1.16 1.32 -1.72 c1.04 -1.44 2.08 -2.92 3 -4.4 z M142.24 30.32 l0.24 -0.4 s-0.2 -1.04 -0.56 -0.96 l0 0 c-0.32 0.08 -0.84 0.72 -0.88 0.72 c-0.2 0.28 -0.36 0.56 -0.56 0.88 c0 0.04 -0.04 0.08 -0.08 0.16 c-0.24 0.48 -0.44 1 -0.6 1.52 c-0.08 0.24 -0.12 0.52 -0.2 0.76 c-0.04 0.28 -0.08 0.56 -0.08 0.84 c0 0.08 0 0.2 0.04 0.28 c0.08 0.12 0.24 0 0.28 -0.08 c0.32 -0.36 0.72 -0.88 0.84 -1.08 c0.56 -0.84 1.08 -1.72 1.56 -2.64 z"></path></g></svg>